<?xml version="1.0" encoding="utf-8"?>
<svg version="1.1" xmlns="http://www.w3.org/2000/svg" width="223" height="226">
  <path d="M 0 0 C 2.487 2.487 2.69 4.229 3.563 7.625 C 5.705 14.95 9.201 21.124 13.074 27.664 C 16.724 33.986 17.074 40.647 15.328 47.723 C 14.614 49.847 13.859 51.93 13 54 C 14.32 54 15.64 54 17 54 C 17.182 53.203 17.364 52.407 17.551 51.586 C 19.83 41.978 22.731 34.902 30 28 C 30.227 27.735 32.447 25.844 32.899 25.445 C 38.381 20.61 37.45 21.666 39.851 19.989 C 41.082 19.071 43.926 12.876 46 10 C 46.33 10 46.66 10 47 10 C 47.086 10.58 47.171 11.159 47.26 11.757 C 47.651 14.4 48.044 17.044 48.438 19.688 C 48.64 21.056 48.64 21.056 48.846 22.451 C 48.978 23.337 49.11 24.224 49.246 25.137 C 49.427 26.354 49.427 26.354 49.611 27.596 C 49.883 29.277 50.193 30.952 50.532 32.62 C 52.299 41.607 51.554 50.969 47 59 C 44.803 61.428 42.691 63.086 40 65 C 41.65 65.99 43.3 66.98 45 68 C 45.28 67.432 45.559 66.863 45.848 66.277 C 49.751 58.759 54.132 52.297 62.563 49.613 C 66.916 48.518 71.301 47.593 75.699 46.695 C 79.202 45.957 82.583 45.058 86 44 C 83.427 51.807 80.179 58.83 76.063 65.938 C 75.55 66.856 75.038 67.774 74.51 68.721 C 70.458 75.789 66.54 79.649 59 83 C 58.34 83 57.68 83 57 83 C 57.33 83.66 57.66 84.32 58 85 C 61.293 83.902 63.337 82.725 66.063 80.5 C 74.163 74.572 86.197 75.735 95.75 75.875 C 96.936 75.884 98.122 75.893 99.344 75.902 C 102.229 75.926 105.115 75.958 108 76 C 105.527 78.482 103.048 80.953 100.535 83.395 C 96.026 87.804 91.974 92.176 88.309 97.305 C 86.497 99.652 84.459 101.361 82 103 C 81.34 103 80.68 103 80 103 C 80.743 103.835 80.743 103.835 81.5 104.688 C 83.248 107.382 83.262 108.854 83 112 C 81 112.813 81 112.813 78 113 C 76.168 111.953 76.168 111.953 74.188 110.563 C 69.778 107.587 67.282 107.329 62 108 C 60.824 108.516 59.649 109.031 58.438 109.563 C 53.432 111.656 50.181 110.735 45.125 109.031 C 36.273 106.052 27.455 103.894 18.438 107.375 C 16.98 108.346 15.537 109.339 14.125 110.375 C 10.975 111.301 8.913 109.987 5.969 108.734 C 3.576 107.842 -3.888 107.29 -6 107.875 C -6.722 108.058 -7.444 108.241 -8.187 108.43 C -10.001 108.847 -10.001 108.847 -11 110 C -12.603 109.762 -14.206 109.521 -15.807 109.267 C -20.084 108.747 -24.385 108.857 -28.687 108.875 C -30.092 108.869 -30.092 108.869 -31.525 108.863 C -32.428 108.865 -33.331 108.866 -34.262 108.867 C -35.076 108.868 -35.89 108.869 -36.729 108.871 C -39.001 109 -40.873 109.182 -43 110 C -43.495 111.485 -43.495 111.485 -44 113 C -47.769 112.615 -50.665 112.171 -54.062 110.438 C -60.315 107.587 -68.457 107.9 -74.906 109.902 C -77.015 110.84 -79.016 111.824 -81 113 C -82.062 111.125 -82.062 111.125 -83 109 C -82.67 108.34 -80.68 107 -80 107 C -80 106.34 -80 105.68 -80 105 C -81.237 104.722 -81.237 104.722 -82.5 104.438 C -90.842 101.012 -95.659 94.067 -100.82 86.949 C -104.225 82.343 -107.951 78.049 -112 74 C -103.976 74.733 -95.982 75.689 -87.994 76.738 C -86.106 76.986 -84.217 77.228 -82.328 77.469 C -72.847 78.78 -66.65 81.224 -59 87 C -58.01 85.515 -58.01 85.515 -57 84 C -57.641 83.792 -58.281 83.585 -58.941 83.371 C -67.951 80.162 -72.864 75.766 -77 67.221 C -79.014 62.748 -80.672 58.14 -82.355 53.535 C -84.106 48.886 -86.072 45.019 -89 41 C -88.67 40.34 -88.34 39.68 -88 39 C -86.845 39.557 -85.69 40.114 -84.5 40.688 C -80.071 42.674 -75.575 44.106 -70.937 45.5 C -59.87 48.899 -51.67 52.441 -45.832 63.141 C -45 65.063 -45 65.063 -44 68 C -40.372 66.134 -40.372 66.134 -38 63 C -38.866 62.773 -39.732 62.546 -40.625 62.313 C -45.815 60.294 -48.824 58.358 -51.301 53.391 C -56.381 39.914 -51.872 26.582 -49 13 C -46.193 15.769 -43.472 18.542 -40.937 21.563 C -38.262 24.679 -35.434 27.544 -32.478 30.387 C -24.873 37.741 -19.597 44.054 -19 55 C -17.02 54.34 -15.04 53.68 -13 53 C -13.959 51.422 -13.959 51.422 -14.937 49.813 C -18.102 44.171 -18.218 40.411 -16.652 34.188 C -15.167 29.205 -12.569 25.364 -9.562 21.188 C -4.856 14.575 -2 7.833 0 0 Z M 0 16 C -9.71 26.856 -9.71 26.856 -12.387 40.637 C -11.438 46.437 -7.559 49.707 -3 53 C -1.508 48.523 -1.983 44.132 -2.062 39.445 C -2.008 36.461 -1.703 33.889 -1 31 C -0.67 31 -0.34 31 0 31 C 0.33 37.93 0.66 44.86 1 52 C 2.98 52 4.96 52 7 52 C 9.887 47.105 11.293 42.666 11 37 C 9.058 29.498 4.811 22.682 1 16 C 0.67 16 0.34 16 0 16 Z M 34.063 30.688 C 33.321 31.409 32.579 32.13 31.814 32.873 C 31.104 33.579 30.393 34.285 29.66 35.012 C 28.68 35.978 28.68 35.978 27.68 36.964 C 24.6 40.697 23.721 44.296 23.75 49.063 C 23.745 49.899 23.74 50.736 23.734 51.598 C 24.017 54.15 24.717 55.796 26 58 C 28.935 56.532 29.141 54.523 30.313 51.5 C 32.495 46.07 35.016 41.028 38 36 C 38.33 36.33 38.66 36.66 39 37 C 36.691 44.835 34.192 52.478 31 60 C 34.531 60.896 35.619 61.171 39.063 59.625 C 43.757 55.43 45.636 51.198 46.348 44.945 C 46.56 37.257 45.221 30.336 43 23 C 40.048 23 36.063 28.701 34.063 30.688 Z M -46 25 C -48.197 33.689 -50.58 44.362 -45.937 52.563 C -43.147 56.301 -40.274 58.168 -36 60 C -33.354 60.125 -33.354 60.125 -31 60 C -31.505 58.808 -32.011 57.615 -32.531 56.387 C -33.188 54.82 -33.844 53.254 -34.5 51.688 C -34.834 50.902 -35.168 50.116 -35.512 49.307 C -35.828 48.549 -36.143 47.792 -36.469 47.012 C -36.762 46.315 -37.055 45.619 -37.357 44.901 C -38 43 -38 43 -38 40 C -33.795 45.756 -30.859 51.102 -29 58 C -28.01 57.34 -27.02 56.68 -26 56 C -25.481 53.315 -25.481 53.315 -25.562 50.25 C -25.543 49.224 -25.524 48.198 -25.504 47.141 C -26.622 40.059 -31.891 36.021 -37.125 31.688 C -37.758 31.151 -38.391 30.614 -39.043 30.061 C -42.327 27.241 -42.327 27.241 -46 25 Z M -76 51 C -75.393 55.728 -74.091 59.732 -72.25 64.125 C -71.76 65.324 -71.27 66.523 -70.766 67.758 C -67.963 72.904 -64.205 75.207 -58.875 77.375 C -58.027 77.733 -57.179 78.092 -56.305 78.461 C -55.544 78.639 -54.784 78.817 -54 79 C -53.01 78.34 -52.02 77.68 -51 77 C -52.321 74.068 -53.746 72.013 -56.039 69.766 C -56.619 69.192 -57.199 68.618 -57.797 68.027 C -58.4 67.441 -59.003 66.854 -59.625 66.25 C -60.236 65.648 -60.847 65.046 -61.477 64.426 C -62.98 62.946 -64.489 61.472 -66 60 C -61.905 60 -60.664 61.641 -57.562 64.25 C -56.615 65.039 -55.668 65.828 -54.691 66.641 C -52.361 68.683 -50.157 70.777 -48 73 C -46.719 71.016 -46.719 71.016 -47.68 68.828 C -51.441 60.715 -55.891 57.031 -64.145 53.75 C -69.943 51.675 -69.943 51.675 -76 51 Z M 53.551 60.176 C 50.568 63.685 48.74 67.767 47 72 C 47.66 72.33 48.32 72.66 49 73 C 49.444 72.667 49.888 72.334 50.345 71.99 C 52.351 70.489 54.363 68.994 56.375 67.5 C 57.423 66.713 57.423 66.713 58.492 65.91 C 59.163 65.414 59.833 64.918 60.523 64.406 C 61.141 63.945 61.759 63.485 62.396 63.01 C 64 62 64 62 66 62 C 61.671 67.184 57.234 71.727 52 76 C 52.33 76.66 52.66 77.32 53 78 C 58.683 77.574 62.943 75.984 67 72 C 71.493 65.571 75.272 58.35 78 51 C 70.229 51 59.441 55.2 53.551 60.176 Z M -47.812 79.25 C -55.896 89.683 -55.896 89.683 -59 102 C -57.68 102 -56.36 102 -55 102 C -54.504 100.938 -54.007 99.876 -53.496 98.781 C -49.799 91.029 -46.341 83.961 -40 78 C -39.493 77.486 -38.987 76.971 -38.465 76.441 C -27.31 65.889 -12.916 61.507 2.135 61.644 C 8.125 61.842 13.386 62.98 19 65 C 19.828 65.267 20.655 65.534 21.508 65.809 C 36.683 71.16 46.033 82.213 52.871 96.336 C 53.819 98.573 54.511 100.629 55 103 C 56.32 103 57.64 103 59 103 C 58.545 90.932 51.22 82.248 43 74 C 42.385 73.362 41.77 72.724 41.137 72.066 C 30.759 62.089 16.324 57.219 2.125 56.625 C -17.358 57.362 -34.907 64.245 -47.812 79.25 Z M -39 85 C -44.217 91.172 -47.238 97.115 -49 105 C -45.744 104.512 -42.715 103.912 -39.562 102.938 C -32.125 101.032 -23.014 100.785 -15.687 103.188 C -10.554 104.319 -6.817 102.836 -2 101 C -2.33 99.35 -2.66 97.7 -3 96 C -7.207 94.785 -9.4 95.269 -13.375 97 C -18.234 98.899 -20.995 99.46 -26 98 C -26.99 97.34 -27.98 96.68 -29 96 C -28.73 92.129 -28.241 90.294 -25.75 87.25 C -22.248 84.385 -19.686 83.268 -15.25 82.563 C -10.531 83.198 -7 85.511 -3 88 C -4.398 84.455 -4.398 84.455 -6 81 C -6.134 78.328 -6.043 75.677 -6 73 C 0.75 74.625 0.75 74.625 3 78 C 3.195 80.918 3.195 80.918 3.125 84.188 C 3.107 85.274 3.089 86.361 3.07 87.48 C 3.047 88.312 3.024 89.143 3 90 C 3.763 89.216 4.526 88.433 5.313 87.625 C 9.019 84.005 11.296 82.723 16.375 82.25 C 17.311 82.152 18.247 82.054 19.211 81.953 C 22.294 82.005 24.27 82.591 27 84 C 28.234 86.468 28.202 88.247 28.25 91 C 28.276 91.887 28.302 92.774 28.328 93.688 C 28.22 94.451 28.112 95.214 28 96 C 24.238 98.508 22.171 98.236 17.688 98.188 C 16.392 98.181 15.096 98.175 13.762 98.168 C 10.415 98.019 7.284 97.636 4 97 C 3.67 98.32 3.34 99.64 3 101 C 7.184 104.043 9.87 104.489 15 104 C 16.901 103.521 18.797 103.018 20.688 102.5 C 29.699 100.129 37.621 99.721 46 104 C 46.99 104 47.98 104 49 104 C 47.136 97.083 44.242 91.746 40 86 C 38.917 84.453 38.917 84.453 37.813 82.875 C 29.292 73.012 15.524 68.329 3 67 C -13.21 66.214 -28.106 73.333 -39 85 Z M -3.393 76.084 C -4.165 77.921 -3.772 76.837 -4 79 C -2.77 80.813 -0.115 82.233 0.565 82.233 C 0.565 80.583 1.125 79.796 0.123 78.256 C -0.649 77.308 -2.033 76.764 -3.393 76.084 Z M -99 80 C -94.801 89.034 -88.293 98.186 -78.742 101.871 C -73.59 103.277 -69.9 103.144 -65 101 C -64.505 99.515 -64.505 99.515 -64 98 C -64.75 97.697 -65.5 97.394 -66.273 97.082 C -73.005 94.327 -79.546 91.355 -86 88 C -86 87.67 -86 87.34 -86 87 C -79.496 88.632 -73.282 90.541 -67.094 93.133 C -65.423 93.825 -63.716 94.428 -62 95 C -61.228 93.163 -61.228 93.163 -61 91 C -66.937 83.914 -74.729 81.749 -83.538 80.869 C -91.259 80.227 -91.259 80.227 -99 80 Z M 64.563 87.688 C 63.883 88.31 63.204 88.933 62.504 89.574 C 62.008 90.045 61.511 90.515 61 91 C 61.33 92.32 61.66 93.64 62 95 C 67.287 94.234 71.331 91.818 75.965 89.277 C 79.232 87.902 81.494 87.754 85 88 C 82.037 90.393 79.11 91.977 75.625 93.5 C 71.694 95.242 67.825 97.036 64 99 C 68.283 101.855 71.976 101.598 77 101 C 86.158 97.275 91.035 89.15 96 81 C 92.813 80.912 89.626 80.859 86.438 80.813 C 85.542 80.787 84.647 80.762 83.725 80.736 C 75.791 80.649 70.525 82.144 64.563 87.688 Z M 8 87 C 7.67 87.66 7.34 88.32 7 89 C 7.915 88.977 8.83 88.954 9.773 88.93 C 10.962 88.912 12.15 88.894 13.375 88.875 C 14.558 88.852 15.742 88.829 16.961 88.805 C 20 89 20 89 22 91 C 20.536 90.857 20.536 90.857 19.043 90.711 C 17.771 90.6 16.498 90.489 15.188 90.375 C 13.923 90.259 12.658 90.143 11.355 90.023 C 7.864 89.686 7.864 89.686 5 92 C 11.483 94.631 17.023 95.393 24 95 C 25.788 91.542 25.788 91.542 25.375 87.813 C 23.677 85.574 22.682 84.87 20 84 C 15.002 83.546 12.02 83.926 8 87 Z M -24 89 C -25.347 91.571 -25.347 91.571 -26 94 C -24.387 95.613 -22.664 95.248 -20.437 95.313 C -14.978 95.289 -11.655 93.759 -7 91 C -7.66 90.34 -8.32 89.68 -9 89 C -11.916 89.201 -11.916 89.201 -15.125 89.875 C -16.221 90.079 -17.316 90.282 -18.445 90.492 C -19.288 90.66 -20.131 90.827 -21 91 C -21 90.34 -21 89.68 -21 89 C -17.7 88.34 -14.4 87.68 -11 87 C -11 86.67 -11 86.34 -11 86 C -18.028 85.584 -18.028 85.584 -24 89 Z" fill="#92A573" transform="translate(113,4)"/>
  <path d="M0 0 C2.05078125 0.03255208 4.1015625 0.06510417 6.15234375 0.09765625 C6.46995679 1.42978086 6.78108362 2.76345191 7.08984375 4.09765625 C7.26386719 4.84015625 7.43789063 5.58265625 7.6171875 6.34765625 C8.31178919 9.91699632 8.72769142 13.48619862 9.15234375 17.09765625 C9.35730469 15.95425781 9.56226562 14.81085938 9.7734375 13.6328125 C10.04536685 12.14188949 10.31751349 10.65100609 10.58984375 9.16015625 C10.72455078 8.40541016 10.85925781 7.65066406 10.99804688 6.87304688 C12.0390625 1.2109375 12.0390625 1.2109375 13.15234375 0.09765625 C14.67162413 0.02585661 16.19401857 0.01373618 17.71484375 0.03515625 C18.54113281 0.04417969 19.36742188 0.05320312 20.21875 0.0625 C20.85683594 0.07410156 21.49492188 0.08570312 22.15234375 0.09765625 C22.8245585 3.84668372 23.48914942 7.59702346 24.15234375 11.34765625 C24.343125 12.41113281 24.53390625 13.47460938 24.73046875 14.5703125 C24.9109375 15.59511719 25.09140625 16.61992187 25.27734375 17.67578125 C25.52871094 19.08972168 25.52871094 19.08972168 25.78515625 20.53222656 C26.15234375 23.09765625 26.15234375 23.09765625 26.15234375 27.09765625 C24.50234375 27.09765625 22.85234375 27.09765625 21.15234375 27.09765625 C20.66837825 25.55748931 20.19041988 24.01543431 19.71484375 22.47265625 C19.44800781 21.61414063 19.18117188 20.755625 18.90625 19.87109375 C18.12394446 16.99318218 17.64263812 14.03942245 17.15234375 11.09765625 C15.83234375 16.37765625 14.51234375 21.65765625 13.15234375 27.09765625 C10.51234375 27.09765625 7.87234375 27.09765625 5.15234375 27.09765625 C3.91033623 21.77993475 2.84400163 16.51564297 2.15234375 11.09765625 C0.70108645 16.07339557 -0.61134254 21.06409329 -1.84765625 26.09765625 C-3.49765625 26.42765625 -5.14765625 26.75765625 -6.84765625 27.09765625 C-7.99341477 23.6603807 -7.65827083 22.29519764 -6.88671875 18.80859375 C-6.66242187 17.78507812 -6.438125 16.7615625 -6.20703125 15.70703125 C-5.9646875 14.6396875 -5.72234375 13.57234375 -5.47265625 12.47265625 C-5.23804688 11.39757812 -5.0034375 10.3225 -4.76171875 9.21484375 C-2.74623117 0.14514964 -2.74623117 0.14514964 0 0 Z " fill="#92A573" transform="translate(14.84765625,124.90234375)"/>
  <path d="M0 0 C6.6 0 13.2 0 20 0 C23.78339127 7.56678255 25.73094611 12.69145867 24 21 C18.90934177 23.05412525 14.48270676 24.32864815 9 25 C7.33657163 26.66342837 7.63951903 28.7825709 7.4375 31.0625 C7.31181641 32.44115234 7.31181641 32.44115234 7.18359375 33.84765625 C7.12300781 34.55792969 7.06242187 35.26820313 7 36 C4.69 36 2.38 36 0 36 C0 24.12 0 12.24 0 0 Z M8 6 C6.73762269 8.52475462 6.90143596 10.31200466 6.9375 13.125 C6.958125 14.73375 6.97875 16.3425 7 18 C12.445 17.01 12.445 17.01 18 16 C17.49287967 12.28111761 16.88391785 9.26545761 15 6 C12.69 6 10.38 6 8 6 Z " fill="#92A573" transform="translate(10,156)"/>
  <path d="M0 0 C1.65 0 3.3 0 5 0 C5.33 3.3 5.66 6.6 6 10 C6.84304687 10.02578125 7.68609375 10.0515625 8.5546875 10.078125 C10.19824219 10.16320312 10.19824219 10.16320312 11.875 10.25 C12.96554688 10.29640625 14.05609375 10.3428125 15.1796875 10.390625 C18 11 18 11 19.16186523 12.63305664 C20.24111096 15.68091196 20.24206312 18.24745957 20.23046875 21.48046875 C20.22853516 22.72634766 20.22660156 23.97222656 20.22460938 25.25585938 C20.20624023 27.20202148 20.20624023 27.20202148 20.1875 29.1875 C20.18685547 30.49654297 20.18621094 31.80558594 20.18554688 33.15429688 C20.14021767 42.85978233 20.14021767 42.85978233 19 44 C17.33382885 44.04063832 15.66611905 44.042721 14 44 C13.98018066 43.39526855 13.96036133 42.79053711 13.93994141 42.16748047 C13.84413701 39.40291491 13.73468445 36.63904826 13.625 33.875 C13.5940625 32.92367187 13.563125 31.97234375 13.53125 30.9921875 C13.32252954 25.98289652 12.94494635 21.69633387 11 17 C9.35 17 7.7 17 6 17 C6.00523682 17.57032959 6.01047363 18.14065918 6.01586914 18.72827148 C6.03658221 21.29800323 6.0496419 23.86771747 6.0625 26.4375 C6.07087891 27.33533203 6.07925781 28.23316406 6.08789062 29.15820312 C6.09111328 30.01220703 6.09433594 30.86621094 6.09765625 31.74609375 C6.10289307 32.53685303 6.10812988 33.3276123 6.11352539 34.14233398 C6 36 6 36 5 37 C3.33382885 37.04063832 1.66611905 37.042721 0 37 C-1.04364431 29.31347686 -1.14981478 21.75048142 -1.125 14 C-1.12886719 12.76121094 -1.13273438 11.52242187 -1.13671875 10.24609375 C-1.13542969 9.07175781 -1.13414062 7.89742187 -1.1328125 6.6875 C-1.13168457 5.61886719 -1.13055664 4.55023438 -1.12939453 3.44921875 C-1 1 -1 1 0 0 Z " fill="#92A573" transform="translate(132,156)"/>
  <path d="M0 0 C0.74507812 0.00902344 1.49015625 0.01804688 2.2578125 0.02734375 C4.08868059 0.05081642 5.91938238 0.08668475 7.75 0.125 C10.29150194 5.62825222 11.06924927 9.05926382 10.75 15.125 C7.34648662 17.15719488 4.4267073 17.49391039 0.5 17.75 C-0.57765625 17.82476562 -1.6553125 17.89953125 -2.765625 17.9765625 C-3.99539062 18.05003906 -3.99539062 18.05003906 -5.25 18.125 C-5.25 18.785 -5.25 19.445 -5.25 20.125 C-3.64318359 20.19847656 -3.64318359 20.19847656 -2.00390625 20.2734375 C-0.60674361 20.34845294 0.7903905 20.4240013 2.1875 20.5 C2.89455078 20.5309375 3.60160156 20.561875 4.33007812 20.59375 C6.14239188 20.69780629 7.94817988 20.90419892 9.75 21.125 C10.08 21.785 10.41 22.445 10.75 23.125 C10.42 24.115 10.09 25.105 9.75 26.125 C3.15 26.125 -3.45 26.125 -10.25 26.125 C-12.12225366 22.38049268 -12.49550933 21.27472809 -12.4453125 17.359375 C-12.43886719 16.46992188 -12.43242188 15.58046875 -12.42578125 14.6640625 C-12.40902344 13.74367187 -12.39226563 12.82328125 -12.375 11.875 C-12.36597656 10.93914062 -12.35695312 10.00328125 -12.34765625 9.0390625 C-12.32413636 6.73411343 -12.29126853 4.4296884 -12.25 2.125 C-8.18051131 -0.16309773 -4.56891048 -0.10493964 0 0 Z M-6.25 7.125 C-6.50030977 9.70880177 -6.50030977 9.70880177 -6.25 12.125 C-0.4525577 12.36928343 -0.4525577 12.36928343 4.75 10.125 C4.25243908 7.36858584 4.25243908 7.36858584 2.75 5.125 C-1.28160191 4.86206944 -2.80892734 4.83095156 -6.25 7.125 Z " fill="#92A573" transform="translate(68.25,165.875)"/>
  <path d="M0 0 C5.28 0 10.56 0 16 0 C18.86202697 5.72405395 19.60591916 7.99026717 20 14 C19.67 14.99 19.34 15.98 19 17 C19.33 17.99 19.66 18.98 20 20 C19.34 22.64 18.68 25.28 18 28 C12.06 28 6.12 28 0 28 C0 18.76 0 9.52 0 0 Z M5 7 C5 12.28 5 17.56 5 23 C7.64 23 10.28 23 13 23 C13.33 21.68 13.66 20.36 14 19 C11.36 18.34 8.72 17.68 6 17 C6.33 16.01 6.66 15.02 7 14 C10.5625 12.8125 10.5625 12.8125 14 12 C13.81171228 9.55519921 13.81171228 9.55519921 13 7 C9.58419367 4.29091222 9.13170234 4.93414883 5 7 Z " fill="#92A573" transform="translate(123,124)"/>
  <path d="M0 0 C0.79341797 -0.00386719 1.58683594 -0.00773438 2.40429688 -0.01171875 C8.31086933 -0.00163067 8.31086933 -0.00163067 9.4375 1.125 C9.53696453 2.89359193 9.56830217 4.66611451 9.5703125 6.4375 C9.57224609 8.05011719 9.57224609 8.05011719 9.57421875 9.6953125 C9.57035156 10.82710937 9.56648438 11.95890625 9.5625 13.125 C9.56830078 14.82269531 9.56830078 14.82269531 9.57421875 16.5546875 C9.57292969 17.62976563 9.57164062 18.70484375 9.5703125 19.8125 C9.56918457 20.80636719 9.56805664 21.80023438 9.56689453 22.82421875 C9.4375 25.125 9.4375 25.125 8.4375 26.125 C5.59414952 26.22486975 2.78052837 26.26377881 -0.0625 26.25 C-0.86042969 26.25386719 -1.65835938 26.25773437 -2.48046875 26.26171875 C-8.43589233 26.25160767 -8.43589233 26.25160767 -9.5625 25.125 C-10.78987478 17.18494589 -10.67711625 9.13540271 -10.5625 1.125 C-7.26572112 -0.52338944 -3.61933956 -0.01772738 0 0 Z M-2.5625 6.125 C-4.81849054 7.92659394 -4.81849054 7.92659394 -4.64453125 10.4375 C-4.55558594 11.324375 -4.46664062 12.21125 -4.375 13.125 C-4.29894531 14.011875 -4.22289062 14.89875 -4.14453125 15.8125 C-3.74651535 18.48729246 -3.74651535 18.48729246 -0.5625 20.125 C0.7575 19.795 2.0775 19.465 3.4375 19.125 C3.4375 14.835 3.4375 10.545 3.4375 6.125 C1.4575 6.125 -0.5225 6.125 -2.5625 6.125 Z " fill="#92A573" transform="translate(191.5625,165.875)"/>
  <path d="M0 0 C0.74121094 0.00064453 1.48242188 0.00128906 2.24609375 0.00195312 C7.73460541 0.04710541 7.73460541 0.04710541 8.875 1.1875 C8.96237645 3.04119611 8.98198153 4.89817541 8.97265625 6.75390625 C8.96943359 7.87861328 8.96621094 9.00332031 8.96289062 10.16210938 C8.95451172 11.34611328 8.94613281 12.53011719 8.9375 13.75 C8.93298828 14.93787109 8.92847656 16.12574219 8.92382812 17.34960938 C8.91199686 20.29559412 8.89406076 23.24155316 8.875 26.1875 C2.935 26.1875 -3.005 26.1875 -9.125 26.1875 C-10.60764956 21.73955133 -10.62038659 17.28566747 -10.875 12.625 C-10.94332031 11.65369141 -11.01164063 10.68238281 -11.08203125 9.68164062 C-11.13230469 8.75416016 -11.18257812 7.82667969 -11.234375 6.87109375 C-11.28561523 6.02087646 -11.33685547 5.17065918 -11.38964844 4.29467773 C-11.30231445 3.59930908 -11.21498047 2.90394043 -11.125 2.1875 C-7.35405955 -0.3264603 -4.35820555 -0.07276442 0 0 Z M-5.125 8.1875 C-4.9243036 10.87543893 -4.9243036 10.87543893 -4.25 13.8125 C-4.04632813 14.81539062 -3.84265625 15.81828125 -3.6328125 16.8515625 C-3.46523437 17.62242187 -3.29765625 18.39328125 -3.125 19.1875 C-1.475 19.5175 0.175 19.8475 1.875 20.1875 C3.62917412 15.69242881 4.15862108 12.0090583 3.875 7.1875 C2.76333136 5.85562207 2.76333136 5.85562207 -0.0625 6 C-3.23392859 5.85471267 -3.23392859 5.85471267 -5.125 8.1875 Z " fill="#92A573" transform="translate(167.125,165.8125)"/>
  <path d="M0 0 C0.74886475 0.00523682 1.49772949 0.01047363 2.26928711 0.01586914 C3.07817383 0.0190918 3.88706055 0.02231445 4.72045898 0.02563477 C5.5705957 0.03401367 6.42073242 0.04239258 7.29663086 0.05102539 C8.15063477 0.05553711 9.00463867 0.06004883 9.88452148 0.06469727 C12.00108749 0.07652166 14.11761771 0.0944577 16.23413086 0.11352539 C15.35913086 3.98852539 15.35913086 3.98852539 14.23413086 5.11352539 C12.55229138 5.34639547 10.86288926 5.52616705 9.17163086 5.67602539 C8.2525293 5.75981445 7.33342773 5.84360352 6.38647461 5.92993164 C5.32106445 6.02081055 5.32106445 6.02081055 4.23413086 6.11352539 C4.91475586 6.64977539 5.59538086 7.18602539 6.29663086 7.73852539 C7.26600586 8.52227539 8.23538086 9.30602539 9.23413086 10.11352539 C9.85803711 10.52602539 10.48194336 10.93852539 11.12475586 11.36352539 C14.19599524 13.56083487 16.02403324 14.88242705 16.67944336 18.72290039 C16.67163086 21.48852539 16.67163086 21.48852539 16.23413086 26.11352539 C9.96413086 26.11352539 3.69413086 26.11352539 -2.76586914 26.11352539 C-2.43586914 24.46352539 -2.10586914 22.81352539 -1.76586914 21.11352539 C1.53413086 20.78352539 4.83413086 20.45352539 8.23413086 20.11352539 C8.23413086 19.45352539 8.23413086 18.79352539 8.23413086 18.11352539 C6.02080136 16.33100781 6.02080136 16.33100781 3.29663086 14.55102539 C-1.72673871 11.15265583 -1.72673871 11.15265583 -2.76586914 10.11352539 C-2.86377484 8.61614415 -2.89561778 7.11409647 -2.89086914 5.61352539 C-2.89344727 4.79883789 -2.89602539 3.98415039 -2.89868164 3.14477539 C-2.73071351 0.57585106 -2.58063665 0.16590572 0 0 Z " fill="#92A573" transform="translate(85.765869140625,165.886474609375)"/>
  <path d="M0 0 C0.042721 1.66611905 0.04063832 3.33382885 0 5 C-1.73956658 6.73956658 -4.1936622 6.37190386 -6.5625 6.5625 C-8.08037109 6.68818359 -8.08037109 6.68818359 -9.62890625 6.81640625 C-10.41136719 6.87699219 -11.19382812 6.93757812 -12 7 C-11.85962479 8.81293089 -11.71255111 10.6253443 -11.5625 12.4375 C-11.48128906 13.44683594 -11.40007812 14.45617187 -11.31640625 15.49609375 C-11.26788532 17.93640779 -11.26788532 17.93640779 -10 19 C-8.15108054 19.23363881 -6.29511969 19.41303635 -4.4375 19.5625 C-3.42558594 19.64628906 -2.41367188 19.73007813 -1.37109375 19.81640625 C-0.19740234 19.90728516 -0.19740234 19.90728516 1 20 C1 21.98 1 23.96 1 26 C-4.94 26 -10.88 26 -17 26 C-19.25389864 19.23830409 -19.25389864 19.23830409 -19.265625 15.765625 C-19.26820312 15.02699219 -19.27078125 14.28835937 -19.2734375 13.52734375 C-19.26570313 12.77582031 -19.25796875 12.02429688 -19.25 11.25 C-19.25773437 10.48300781 -19.26546875 9.71601563 -19.2734375 8.92578125 C-19.25349978 3.25349978 -19.25349978 3.25349978 -17 1 C-11.43717452 -0.42636551 -5.69972591 -0.09127675 0 0 Z " fill="#92A573" transform="translate(126,166)"/>
  <path d="M0 0 C0.77214844 0.11085937 1.54429687 0.22171875 2.33984375 0.3359375 C2.90832031 0.43132812 3.47679687 0.52671875 4.0625 0.625 C5.86869523 5.08736469 6.17908501 7.93534294 5.0625 12.625 C1.4325 13.285 -2.1975 13.945 -5.9375 14.625 C-2.3075 14.955 1.3225 15.285 5.0625 15.625 C4.7325 17.275 4.4025 18.925 4.0625 20.625 C-0.5575 20.625 -5.1775 20.625 -9.9375 20.625 C-12.06151038 16.37697923 -12.1751107 13.45738937 -12.0625 8.875 C-12.05347656 8.17761719 -12.04445312 7.48023438 -12.03515625 6.76171875 C-12.01169888 5.04933042 -11.97583104 3.33711996 -11.9375 1.625 C-7.72864844 0.27528261 -4.3949112 -0.67614018 0 0 Z M-6.9375 4.625 C-6.9375 6.275 -6.9375 7.925 -6.9375 9.625 C-3.4725 9.13 -3.4725 9.13 0.0625 8.625 C0.3925 7.305 0.7225 5.985 1.0625 4.625 C-1.5775 4.625 -4.2175 4.625 -6.9375 4.625 Z " fill="#92A573" transform="translate(196.9375,131.375)"/>
  <path d="M0 0 C1.65 0 3.3 0 5 0 C5 5.28 5 10.56 5 16 C6.65 15.67 8.3 15.34 10 15 C10.33 12.69 10.66 10.38 11 8 C12.32 7.67 13.64 7.34 15 7 C16.25792333 11.27693931 15.75983132 13.92460115 14 18 C13.34 18.33 12.68 18.66 12 19 C12.309375 19.7425 12.61875 20.485 12.9375 21.25 C13.8094925 23.50692176 14.47667007 25.6450153 15 28 C13.68 28.33 12.36 28.66 11 29 C7 23.25 7 23.25 7 21 C6.34 21 5.68 21 5 21 C5 22.98 5 24.96 5 27 C3.35 27.33 1.7 27.66 0 28 C0 18.76 0 9.52 0 0 Z " fill="#92A573" transform="translate(166,124)"/>
  <path d="M0 0 C1.95766281 -0.08082094 3.91626728 -0.13910778 5.875 -0.1875 C7.51082031 -0.23970703 7.51082031 -0.23970703 9.1796875 -0.29296875 C10.11039063 -0.19628906 11.04109375 -0.09960938 12 0 C14.5139603 3.77094045 14.26026442 6.76679445 14.1875 11.125 C14.18685547 11.86621094 14.18621094 12.60742188 14.18554688 13.37109375 C14.14039459 18.85960541 14.14039459 18.85960541 13 20 C10.66839945 20.09909302 8.33370058 20.12970504 6 20.125 C4.72125 20.12757813 3.4425 20.13015625 2.125 20.1328125 C-1 20 -1 20 -2 19 C-2.09879565 17.189715 -2.12971514 15.37547273 -2.125 13.5625 C-2.12757813 12.57378906 -2.13015625 11.58507812 -2.1328125 10.56640625 C-2 8 -2 8 -1 6 C1.32156597 5.59270772 3.6568787 5.25561323 6 5 C3.69 4.34 1.38 3.68 -1 3 C-0.67 2.01 -0.34 1.02 0 0 Z M4 10 C3.34 11.65 2.68 13.3 2 15 C4.31 15 6.62 15 9 15 C9.33 14.34 9.66 13.68 10 13 C9.67 12.01 9.34 11.02 9 10 C7.35 10 5.7 10 4 10 Z " fill="#92A573" transform="translate(148,132)"/>
  <path d="M0 0 C1.5220959 1.5220959 1.12959521 2.88210082 1.1328125 5 C1.13474609 6.2065625 1.13474609 6.2065625 1.13671875 7.4375 C1.13285156 8.283125 1.12898438 9.12875 1.125 10 C1.13080078 11.2684375 1.13080078 11.2684375 1.13671875 12.5625 C1.13542969 13.366875 1.13414063 14.17125 1.1328125 15 C1.13168457 15.7425 1.13055664 16.485 1.12939453 17.25 C1 19 1 19 0 20 C-1.97513667 20.15126231 -3.95678135 20.22173766 -5.9375 20.25 C-7.01902344 20.27578125 -8.10054687 20.3015625 -9.21484375 20.328125 C-10.59349609 20.16570312 -10.59349609 20.16570312 -12 20 C-14.46662244 16.30006635 -14.47969937 13.17458392 -14.6875 8.875 C-14.73455078 8.13378906 -14.78160156 7.39257812 -14.83007812 6.62890625 C-14.93458359 4.75466073 -14.97270642 2.87695837 -15 1 C-11.55027145 -2.44972855 -4.26383004 -0.85276601 0 0 Z M-8 4 C-9.80411967 6.75924185 -10.0127245 7.88972103 -9.625 11.25 C-9.41875 12.1575 -9.2125 13.065 -9 14 C-7.35 14.33 -5.7 14.66 -4 15 C-3.67 11.7 -3.34 8.4 -3 5 C-4.65 4.67 -6.3 4.34 -8 4 Z " fill="#92A573" transform="translate(58,132)"/>
  <path d="M0 0 C1.2065625 0.0309375 1.2065625 0.0309375 2.4375 0.0625 C3.41435365 4.1355403 3.55295444 7.930707 3.53515625 12.11328125 C3.5337413 12.77208786 3.53232635 13.43089447 3.53086853 14.10966492 C3.525305 16.19815762 3.51275947 18.28654011 3.5 20.375 C3.49498028 21.79752449 3.4904182 23.22005066 3.48632812 24.64257812 C3.47534757 28.11592077 3.45810835 31.58919961 3.4375 35.0625 C1.1275 35.0625 -1.1825 35.0625 -3.5625 35.0625 C-3.5871519 30.23869198 -3.60533693 25.41492033 -3.61743164 20.59106445 C-3.62247174 18.94880536 -3.62930378 17.30655077 -3.63793945 15.66430664 C-3.65001926 13.30874521 -3.65573139 10.95324291 -3.66015625 8.59765625 C-3.66531754 7.85910904 -3.67047882 7.12056183 -3.67579651 6.3596344 C-3.6759925 4.59351912 -3.62444719 2.82752854 -3.5625 1.0625 C-2.5625 0.0625 -2.5625 0.0625 0 0 Z " fill="#92A573" transform="translate(209.5625,156.9375)"/>
  <path d="M0 0 C4.62 0 9.24 0 14 0 C15.23839599 6.65637843 15.09139136 13.2471936 15 20 C13.68 20 12.36 20 11 20 C10.66048381 18.43883181 10.32867456 16.87598662 10 15.3125 C9.814375 14.44238281 9.62875 13.57226562 9.4375 12.67578125 C9.01027953 10.06287036 8.92383799 7.64186962 9 5 C7.68 5 6.36 5 5 5 C4.67 9.62 4.34 14.24 4 19 C2.68 19.33 1.36 19.66 0 20 C-1.76685681 13.37428695 -1.32934347 6.64671734 0 0 Z " fill="#92A573" transform="translate(83,132)"/>
  <path d="M0 0 C1.32 0 2.64 0 4 0 C4.66 4.62 5.32 9.24 6 14 C6.99 14 7.98 14 9 14 C9.66 9.38 10.32 4.76 11 0 C12.32 0 13.64 0 15 0 C15.02888514 3.14581423 15.04675923 6.29159469 15.0625 9.4375 C15.07087891 10.33533203 15.07925781 11.23316406 15.08789062 12.15820312 C15.09111328 13.01220703 15.09433594 13.86621094 15.09765625 14.74609375 C15.10289307 15.53685303 15.10812988 16.3276123 15.11352539 17.14233398 C15 19 15 19 14 20 C11.98035801 20.07244053 9.95832876 20.08377188 7.9375 20.0625 C6.28041016 20.04896484 6.28041016 20.04896484 4.58984375 20.03515625 C3.73519531 20.02355469 2.88054687 20.01195312 2 20 C-0.1103435 15.72115394 -0.24128739 11.86135858 -0.125 7.1875 C-0.11597656 6.49462891 -0.10695312 5.80175781 -0.09765625 5.08789062 C-0.07426157 3.39177605 -0.03839641 1.69584129 0 0 Z " fill="#92A573" transform="translate(63,132)"/>
  <path d="M0 0 C0 1.65 0 3.3 0 5 C-0.97324219 5.34160156 -1.94648437 5.68320313 -2.94921875 6.03515625 C-6.36078804 7.7273953 -6.36078804 7.7273953 -6.76953125 11.43359375 C-6.81324711 12.76758991 -6.82657576 14.10286195 -6.8125 15.4375 C-6.98465704 23.82400722 -6.98465704 23.82400722 -8 27 C-9.65 27 -11.3 27 -13 27 C-13.33 18.75 -13.66 10.5 -14 2 C-8.3117328 0.10391093 -5.68620859 -0.19607616 0 0 Z " fill="#92A573" transform="translate(53,165)"/>
  <path d="M0 0 C0.99 0 1.98 0 3 0 C3.66 2.64 4.32 5.28 5 8 C5.99 5.36 6.98 2.72 8 0 C9.65 0 11.3 0 13 0 C13.66 3.3 14.32 6.6 15 10 C15.66 7.03 16.32 4.06 17 1 C18.32 0.67 19.64 0.34 21 0 C19.68 5.28 18.36 10.56 17 16 C15.35 16 13.7 16 12 16 C11.34 12.37 10.68 8.74 10 5 C9.34 8.63 8.68 12.26 8 16 C6.35 16 4.7 16 3 16 C2.49595192 13.89679937 1.99689492 11.79240209 1.5 9.6875 C1.08234375 7.92986328 1.08234375 7.92986328 0.65625 6.13671875 C0 3 0 3 0 0 Z " fill="#92A573" transform="translate(27,203)"/>
  <path d="M0 0 C1.32 0.33 2.64 0.66 4 1 C4.12375 1.804375 4.2475 2.60875 4.375 3.4375 C4.684375 4.7059375 4.684375 4.7059375 5 6 C5.66 6.33 6.32 6.66 7 7 C6.125 10.875 6.125 10.875 5 12 C4.76346477 14.52596259 4.57826308 17.03107207 4.4375 19.5625 C4.39431641 20.27341797 4.35113281 20.98433594 4.30664062 21.71679688 C4.20028223 23.47761912 4.09961154 25.2387832 4 27 C2.35 27.33 0.7 27.66 -1 28 C-1.09087891 26.35451172 -1.09087891 26.35451172 -1.18359375 24.67578125 C-1.26804498 23.22134346 -1.35269066 21.76691695 -1.4375 20.3125 C-1.47681641 19.59126953 -1.51613281 18.87003906 -1.55664062 18.12695312 C-1.73823288 15.0678221 -1.95145628 12.21601955 -2.625 9.21875 C-3.24723026 5.53722097 -1.60956328 3.2835091 0 0 Z " fill="#92A573" transform="translate(104,124)"/>
  <path d="M0 0 C1.37478516 0.01740234 1.37478516 0.01740234 2.77734375 0.03515625 C3.69644531 0.04417969 4.61554688 0.05320313 5.5625 0.0625 C6.27277344 0.07410156 6.98304688 0.08570313 7.71484375 0.09765625 C7.71484375 1.41765625 7.71484375 2.73765625 7.71484375 4.09765625 C6.06484375 4.42765625 4.41484375 4.75765625 2.71484375 5.09765625 C2.38484375 10.37765625 2.05484375 15.65765625 1.71484375 21.09765625 C0.06484375 20.76765625 -1.58515625 20.43765625 -3.28515625 20.09765625 C-3.31404139 16.95184202 -3.33191548 13.80606156 -3.34765625 10.66015625 C-3.35603516 9.76232422 -3.36441406 8.86449219 -3.37304688 7.93945312 C-3.37626953 7.08544922 -3.37949219 6.23144531 -3.3828125 5.3515625 C-3.39066772 4.16542358 -3.39066772 4.16542358 -3.39868164 2.95532227 C-3.22779066 0.15895784 -2.79677051 0.11952011 0 0 Z " fill="#92A573" transform="translate(209.28515625,130.90234375)"/>
  <path d="M0 0 C0.66 0.33 1.32 0.66 2 1 C2.02701408 3.10409639 2.04640223 5.20829178 2.0625 7.3125 C2.07410156 8.48425781 2.08570312 9.65601563 2.09765625 10.86328125 C2 14 2 14 1 17 C-1.64 17 -4.28 17 -7 17 C-7 13.04 -7 9.08 -7 5 C-5.02 5 -3.04 5 -1 5 C-0.67 3.35 -0.34 1.7 0 0 Z M-5 7 C-5 9.31 -5 11.62 -5 14 C-3.68 14 -2.36 14 -1 14 C-1 12.02 -1 10.04 -1 8 C-2.32 7.67 -3.64 7.34 -5 7 Z " fill="#92A573" transform="translate(72,202)"/>
  <path d="M0 0 C1.23556641 0.01740234 1.23556641 0.01740234 2.49609375 0.03515625 C3.32238281 0.04417969 4.14867187 0.05320313 5 0.0625 C5.63808594 0.07410156 6.27617187 0.08570313 6.93359375 0.09765625 C7.26359375 2.07765625 7.59359375 4.05765625 7.93359375 6.09765625 C5.95359375 7.08765625 3.97359375 8.07765625 1.93359375 9.09765625 C3.58359375 9.42765625 5.23359375 9.75765625 6.93359375 10.09765625 C6.93359375 10.75765625 6.93359375 11.41765625 6.93359375 12.09765625 C3.96359375 12.09765625 0.99359375 12.09765625 -2.06640625 12.09765625 C-3.25623685 9.71799505 -3.19990591 8.1827989 -3.19140625 5.53515625 C-3.19527344 4.32666016 -3.19527344 4.32666016 -3.19921875 3.09375 C-3.01612713 0.34199068 -2.7572937 0.13030689 0 0 Z M0.93359375 2.09765625 C0.60359375 3.41765625 0.27359375 4.73765625 -0.06640625 6.09765625 C1.58359375 5.76765625 3.23359375 5.43765625 4.93359375 5.09765625 C4.93359375 4.10765625 4.93359375 3.11765625 4.93359375 2.09765625 C3.61359375 2.09765625 2.29359375 2.09765625 0.93359375 2.09765625 Z " fill="#92A573" transform="translate(205.06640625,206.90234375)"/>
  <path d="M0 0 C2.64 0 5.28 0 8 0 C9.1898306 2.3796612 9.13349966 3.91485735 9.125 6.5625 C9.12757812 7.36816406 9.13015625 8.17382812 9.1328125 9.00390625 C9 11 9 11 8 12 C6.48071962 12.07179964 4.95832518 12.08392007 3.4375 12.0625 C2.61121094 12.05347656 1.78492188 12.04445312 0.93359375 12.03515625 C0.29550781 12.02355469 -0.34257812 12.01195312 -1 12 C-0.67 9.36 -0.34 6.72 0 4 C1.32 3.67 2.64 3.34 4 3 C2.68 2.67 1.36 2.34 0 2 C0 1.34 0 0.68 0 0 Z M2 6 C2 7.32 2 8.64 2 10 C3.32 10 4.64 10 6 10 C6 8.68 6 7.36 6 6 C4.68 6 3.36 6 2 6 Z " fill="#92A573" transform="translate(11,207)"/>
  <path d="M0 0 C2.64 0 5.28 0 8 0 C9.29449495 3.88348484 9.13203312 6.90697336 9 11 C8 12 8 12 4.9375 12.0625 C3.968125 12.041875 2.99875 12.02125 2 12 C1.67 13.32 1.34 14.64 1 16 C0.67 16 0.34 16 0 16 C0 10.72 0 5.44 0 0 Z M3 3 C1.70366379 4.06645115 1.70366379 4.06645115 1.9375 6.5625 C1.958125 7.366875 1.97875 8.17125 2 9 C3.32 9.33 4.64 9.66 6 10 C6.93423645 6.98968256 7.04449911 6.13349732 6 3 C5.01 3 4.02 3 3 3 Z " fill="#92A573" transform="translate(141,207)"/>
  <path d="M0 0 C3.375 -0.1875 3.375 -0.1875 7 0 C9.69461986 4.04192978 9.23200889 6.2051496 9 11 C8 12 8 12 5.93359375 12.09765625 C5.10988281 12.08605469 4.28617188 12.07445312 3.4375 12.0625 C2.61121094 12.05347656 1.78492188 12.04445312 0.93359375 12.03515625 C0.29550781 12.02355469 -0.34257813 12.01195312 -1 12 C-1 9.69 -1 7.38 -1 5 C0.65 4.34 2.3 3.68 4 3 C2.68 2.67 1.36 2.34 0 2 C0 1.34 0 0.68 0 0 Z M2 6 C1.67 6.99 1.34 7.98 1 9 C3.475 9.495 3.475 9.495 6 10 C6 8.68 6 7.36 6 6 C4.68 6 3.36 6 2 6 Z " fill="#92A573" transform="translate(49,207)"/>
  <path d="M0 0 C2.97 0 5.94 0 9 0 C9.33 2.31 9.66 4.62 10 7 C8.02 7.66 6.04 8.32 4 9 C6.97 9.495 6.97 9.495 10 10 C9.67 10.66 9.34 11.32 9 12 C6.36 12 3.72 12 1 12 C-0.47075246 7.58774263 -1.36884358 4.51718381 0 0 Z M3 2 C2.67 3.32 2.34 4.64 2 6 C3.65 5.67 5.3 5.34 7 5 C7 4.01 7 3.02 7 2 C5.68 2 4.36 2 3 2 Z " fill="#92A573" transform="translate(152,207)"/>
  <path d="M0 0 C6.15234375 -0.09765625 6.15234375 -0.09765625 8 0 C9.88059033 1.88059033 9.12361218 4.49890038 9.1328125 6.9921875 C9 9 9 9 8 12 C5.36 12 2.72 12 0 12 C0 8.04 0 4.08 0 0 Z M3 2 C1.99782936 5.58327753 1.99782936 5.58327753 3 9 C3.99 9 4.98 9 6 9 C6 6.69 6 4.38 6 2 C5.01 2 4.02 2 3 2 Z " fill="#92A573" transform="translate(130,207)"/>
  <path d="M0 0 C6.15234375 -0.09765625 6.15234375 -0.09765625 8 0 C9 1 9 1 9.1328125 2.99609375 C9.13023437 3.80175781 9.12765625 4.60742188 9.125 5.4375 C9.12757813 6.24058594 9.13015625 7.04367188 9.1328125 7.87109375 C9 10 9 10 8 12 C5.66705225 12.04241723 3.33297433 12.04092937 1 12 C0 11 0 11 -0.09765625 8.49609375 C-0.08605469 7.48675781 -0.07445313 6.47742188 -0.0625 5.4375 C-0.05347656 4.42558594 -0.04445313 3.41367188 -0.03515625 2.37109375 C-0.02355469 1.58863281 -0.01195313 0.80617187 0 0 Z M3 2 C1.99782936 5.58327753 1.99782936 5.58327753 3 9 C3.99 9 4.98 9 6 9 C6 6.69 6 4.38 6 2 C5.01 2 4.02 2 3 2 Z " fill="#92A573" transform="translate(119,207)"/>
  <path d="M0 0 C2.33294775 -0.04241723 4.66702567 -0.04092937 7 0 C8 1 8 1 8.09765625 3.50390625 C8.08605469 4.51324219 8.07445312 5.52257812 8.0625 6.5625 C8.05347656 7.57441406 8.04445312 8.58632812 8.03515625 9.62890625 C8.02355469 10.41136719 8.01195312 11.19382813 8 12 C5.03 12 2.06 12 -1 12 C-1 9.36 -1 6.72 -1 4 C0.32 3.67 1.64 3.34 3 3 C2.01 2.67 1.02 2.34 0 2 C0 1.34 0 0.68 0 0 Z M1 6 C1 7.32 1 8.64 1 10 C2.65 9.67 4.3 9.34 6 9 C6 8.01 6 7.02 6 6 C4.35 6 2.7 6 1 6 Z " fill="#92A573" transform="translate(172,207)"/>
  <path d="M0 0 C2.97 0 5.94 0 9 0 C9 3.96 9 7.92 9 12 C6.36 12 3.72 12 1 12 C-0.3271261 8.0186217 -0.06915913 4.14954773 0 0 Z M3 2 C3 4.31 3 6.62 3 9 C4.32 9 5.64 9 7 9 C7 6.69 7 4.38 7 2 C5.68 2 4.36 2 3 2 Z " fill="#92A573" transform="translate(76,207)"/>
  <path d="M0 0 C0 0.99 0 1.98 0 3 C-0.99 3.495 -0.99 3.495 -2 4 C-2.31241371 6.54941373 -2.51303421 9.00361513 -2.625 11.5625 C-2.66367188 12.27341797 -2.70234375 12.98433594 -2.7421875 13.71679688 C-2.83671783 15.47742425 -2.91945817 17.23867728 -3 19 C-3.99 19.33 -4.98 19.66 -6 20 C-6.19534474 17.58373582 -6.38153404 15.16734771 -6.5625 12.75 C-6.61857422 12.06808594 -6.67464844 11.38617188 -6.73242188 10.68359375 C-7.23845479 3.73407505 -7.23845479 3.73407505 -6 1 C-3 0 -3 0 0 0 Z " fill="#92A573" transform="translate(101,202)"/>
  <path d="M0 0 C0.99 0 1.98 0 3 0 C3.33 1.65 3.66 3.3 4 5 C4.2475 4.360625 4.495 3.72125 4.75 3.0625 C6 1 6 1 10 0 C9.01 3.96 8.02 7.92 7 12 C5.35 12 3.7 12 2 12 C1.34 8.04 0.68 4.08 0 0 Z " fill="#92A573" transform="translate(192,207)"/>
  <path d="M0 0 C2.05078125 0.03255208 4.1015625 0.06510417 6.15234375 0.09765625 C6.15234375 0.75765625 6.15234375 1.41765625 6.15234375 2.09765625 C4.50234375 2.42765625 2.85234375 2.75765625 1.15234375 3.09765625 C0.82234375 5.07765625 0.49234375 7.05765625 0.15234375 9.09765625 C1.80234375 9.09765625 3.45234375 9.09765625 5.15234375 9.09765625 C5.48234375 10.08765625 5.81234375 11.07765625 6.15234375 12.09765625 C3.51234375 12.09765625 0.87234375 12.09765625 -1.84765625 12.09765625 C-3.1421512 8.21417141 -2.97968937 5.19068289 -2.84765625 1.09765625 C-1.84765625 0.09765625 -1.84765625 0.09765625 0 0 Z " fill="#92A573" transform="translate(110.84765625,206.90234375)"/>
  <path d="M0 0 C0.66 0 1.32 0 2 0 C2.66 1.65 3.32 3.3 4 5 C3.67 5.33 3.34 5.66 3 6 C2.76712992 7.68183948 2.58735834 9.3712416 2.4375 11.0625 C2.31181641 12.44115234 2.31181641 12.44115234 2.18359375 13.84765625 C2.12300781 14.55792969 2.06242188 15.26820313 2 16 C1.34 16 0.68 16 0 16 C-0.06058594 15.38511719 -0.12117187 14.77023438 -0.18359375 14.13671875 C-0.26738281 13.32847656 -0.35117188 12.52023438 -0.4375 11.6875 C-0.51871094 10.88699219 -0.59992188 10.08648437 -0.68359375 9.26171875 C-0.95265693 6.83912821 -0.95265693 6.83912821 -2 4 C-1.0625 1.8125 -1.0625 1.8125 0 0 Z " fill="#92A573" transform="translate(183,203)"/>
  <path d="M0 0 C1.98 0 3.96 0 6 0 C6 0.66 6 1.32 6 2 C5.01 2 4.02 2 3 2 C2.67 5.3 2.34 8.6 2 12 C1.34 12 0.68 12 0 12 C0 8.04 0 4.08 0 0 Z " fill="#92A573" transform="translate(87,207)"/>
  <path d="M0 0 C1.98 0 3.96 0 6 0 C5.67 0.66 5.34 1.32 5 2 C4.34 2 3.68 2 3 2 C2.67 5.3 2.34 8.6 2 12 C1.34 12 0.68 12 0 12 C0 8.04 0 4.08 0 0 Z " fill="#92A573" transform="translate(164,207)"/>
  <path d="M0 0 C0.66 0 1.32 0 2 0 C2 5.28 2 10.56 2 16 C1.34 16 0.68 16 0 16 C0 10.72 0 5.44 0 0 Z " fill="#92A573" transform="translate(60,203)"/>
  <path d="M0 0 C0.99 0 1.98 0 3 0 C2.67 3.96 2.34 7.92 2 12 C1.34 12 0.68 12 0 12 C0 8.04 0 4.08 0 0 Z " fill="#92A573" transform="translate(188,207)"/>
  <path d="M0 0 C0.66 0.99 1.32 1.98 2 3 C1.01 3.33 0.02 3.66 -1 4 C-0.67 2.68 -0.34 1.36 0 0 Z " fill="#92A573" transform="translate(189,202)"/>
  <path d="" fill="#92A573" transform="translate(0,0)"/>
</svg>