<?xml version="1.0" encoding="utf-8"?>
<svg xmlns="http://www.w3.org/2000/svg" viewBox="1 4 220 113" width="220px" height="113px">
  <path d="M 0 0 C 2.487 2.487 2.69 4.229 3.563 7.625 C 5.705 14.95 9.201 21.124 13.074 27.664 C 16.724 33.986 17.074 40.647 15.328 47.723 C 14.614 49.847 13.859 51.93 13 54 C 14.32 54 15.64 54 17 54 C 17.182 53.203 17.364 52.407 17.551 51.586 C 19.83 41.978 22.731 34.902 30 28 C 30.227 27.735 32.447 25.844 32.899 25.445 C 38.381 20.61 37.45 21.666 39.851 19.989 C 41.082 19.071 43.926 12.876 46 10 C 46.33 10 46.66 10 47 10 C 47.086 10.58 47.171 11.159 47.26 11.757 C 47.651 14.4 48.044 17.044 48.438 19.688 C 48.64 21.056 48.64 21.056 48.846 22.451 C 48.978 23.337 49.11 24.224 49.246 25.137 C 49.427 26.354 49.427 26.354 49.611 27.596 C 49.883 29.277 50.193 30.952 50.532 32.62 C 52.299 41.607 51.554 50.969 47 59 C 44.803 61.428 42.691 63.086 40 65 C 41.65 65.99 43.3 66.98 45 68 C 45.28 67.432 45.559 66.863 45.848 66.277 C 49.751 58.759 54.132 52.297 62.563 49.613 C 66.916 48.518 71.301 47.593 75.699 46.695 C 79.202 45.957 82.583 45.058 86 44 C 83.427 51.807 80.179 58.83 76.063 65.938 C 75.55 66.856 75.038 67.774 74.51 68.721 C 70.458 75.789 66.54 79.649 59 83 C 58.34 83 57.68 83 57 83 C 57.33 83.66 57.66 84.32 58 85 C 61.293 83.902 63.337 82.725 66.063 80.5 C 74.163 74.572 86.197 75.735 95.75 75.875 C 96.936 75.884 98.122 75.893 99.344 75.902 C 102.229 75.926 105.115 75.958 108 76 C 105.527 78.482 103.048 80.953 100.535 83.395 C 96.026 87.804 91.974 92.176 88.309 97.305 C 86.497 99.652 84.459 101.361 82 103 C 81.34 103 80.68 103 80 103 C 80.743 103.835 80.743 103.835 81.5 104.688 C 83.248 107.382 83.262 108.854 83 112 C 81 112.813 81 112.813 78 113 C 76.168 111.953 76.168 111.953 74.188 110.563 C 69.778 107.587 67.282 107.329 62 108 C 60.824 108.516 59.649 109.031 58.438 109.563 C 53.432 111.656 50.181 110.735 45.125 109.031 C 36.273 106.052 27.455 103.894 18.438 107.375 C 16.98 108.346 15.537 109.339 14.125 110.375 C 10.975 111.301 8.913 109.987 5.969 108.734 C 3.576 107.842 -3.888 107.29 -6 107.875 C -6.722 108.058 -7.444 108.241 -8.187 108.43 C -10.001 108.847 -10.001 108.847 -11 110 C -12.603 109.762 -14.206 109.521 -15.807 109.267 C -20.084 108.747 -24.385 108.857 -28.687 108.875 C -30.092 108.869 -30.092 108.869 -31.525 108.863 C -32.428 108.865 -33.331 108.866 -34.262 108.867 C -35.076 108.868 -35.89 108.869 -36.729 108.871 C -39.001 109 -40.873 109.182 -43 110 C -43.495 111.485 -43.495 111.485 -44 113 C -47.769 112.615 -50.665 112.171 -54.062 110.438 C -60.315 107.587 -68.457 107.9 -74.906 109.902 C -77.015 110.84 -79.016 111.824 -81 113 C -82.062 111.125 -82.062 111.125 -83 109 C -82.67 108.34 -80.68 107 -80 107 C -80 106.34 -80 105.68 -80 105 C -81.237 104.722 -81.237 104.722 -82.5 104.438 C -90.842 101.012 -95.659 94.067 -100.82 86.949 C -104.225 82.343 -107.951 78.049 -112 74 C -103.976 74.733 -95.982 75.689 -87.994 76.738 C -86.106 76.986 -84.217 77.228 -82.328 77.469 C -72.847 78.78 -66.65 81.224 -59 87 C -58.01 85.515 -58.01 85.515 -57 84 C -57.641 83.792 -58.281 83.585 -58.941 83.371 C -67.951 80.162 -72.864 75.766 -77 67.221 C -79.014 62.748 -80.672 58.14 -82.355 53.535 C -84.106 48.886 -86.072 45.019 -89 41 C -88.67 40.34 -88.34 39.68 -88 39 C -86.845 39.557 -85.69 40.114 -84.5 40.688 C -80.071 42.674 -75.575 44.106 -70.937 45.5 C -59.87 48.899 -51.67 52.441 -45.832 63.141 C -45 65.063 -45 65.063 -44 68 C -40.372 66.134 -40.372 66.134 -38 63 C -38.866 62.773 -39.732 62.546 -40.625 62.313 C -45.815 60.294 -48.824 58.358 -51.301 53.391 C -56.381 39.914 -51.872 26.582 -49 13 C -46.193 15.769 -43.472 18.542 -40.937 21.563 C -38.262 24.679 -35.434 27.544 -32.478 30.387 C -24.873 37.741 -19.597 44.054 -19 55 C -17.02 54.34 -15.04 53.68 -13 53 C -13.959 51.422 -13.959 51.422 -14.937 49.813 C -18.102 44.171 -18.218 40.411 -16.652 34.188 C -15.167 29.205 -12.569 25.364 -9.562 21.188 C -4.856 14.575 -2 7.833 0 0 Z M 0 16 C -9.71 26.856 -9.71 26.856 -12.387 40.637 C -11.438 46.437 -7.559 49.707 -3 53 C -1.508 48.523 -1.983 44.132 -2.062 39.445 C -2.008 36.461 -1.703 33.889 -1 31 C -0.67 31 -0.34 31 0 31 C 0.33 37.93 0.66 44.86 1 52 C 2.98 52 4.96 52 7 52 C 9.887 47.105 11.293 42.666 11 37 C 9.058 29.498 4.811 22.682 1 16 C 0.67 16 0.34 16 0 16 Z M 34.063 30.688 C 33.321 31.409 32.579 32.13 31.814 32.873 C 31.104 33.579 30.393 34.285 29.66 35.012 C 28.68 35.978 28.68 35.978 27.68 36.964 C 24.6 40.697 23.721 44.296 23.75 49.063 C 23.745 49.899 23.74 50.736 23.734 51.598 C 24.017 54.15 24.717 55.796 26 58 C 28.935 56.532 29.141 54.523 30.313 51.5 C 32.495 46.07 35.016 41.028 38 36 C 38.33 36.33 38.66 36.66 39 37 C 36.691 44.835 34.192 52.478 31 60 C 34.531 60.896 35.619 61.171 39.063 59.625 C 43.757 55.43 45.636 51.198 46.348 44.945 C 46.56 37.257 45.221 30.336 43 23 C 40.048 23 36.063 28.701 34.063 30.688 Z M -46 25 C -48.197 33.689 -50.58 44.362 -45.937 52.563 C -43.147 56.301 -40.274 58.168 -36 60 C -33.354 60.125 -33.354 60.125 -31 60 C -31.505 58.808 -32.011 57.615 -32.531 56.387 C -33.188 54.82 -33.844 53.254 -34.5 51.688 C -34.834 50.902 -35.168 50.116 -35.512 49.307 C -35.828 48.549 -36.143 47.792 -36.469 47.012 C -36.762 46.315 -37.055 45.619 -37.357 44.901 C -38 43 -38 43 -38 40 C -33.795 45.756 -30.859 51.102 -29 58 C -28.01 57.34 -27.02 56.68 -26 56 C -25.481 53.315 -25.481 53.315 -25.562 50.25 C -25.543 49.224 -25.524 48.198 -25.504 47.141 C -26.622 40.059 -31.891 36.021 -37.125 31.688 C -37.758 31.151 -38.391 30.614 -39.043 30.061 C -42.327 27.241 -42.327 27.241 -46 25 Z M -76 51 C -75.393 55.728 -74.091 59.732 -72.25 64.125 C -71.76 65.324 -71.27 66.523 -70.766 67.758 C -67.963 72.904 -64.205 75.207 -58.875 77.375 C -58.027 77.733 -57.179 78.092 -56.305 78.461 C -55.544 78.639 -54.784 78.817 -54 79 C -53.01 78.34 -52.02 77.68 -51 77 C -52.321 74.068 -53.746 72.013 -56.039 69.766 C -56.619 69.192 -57.199 68.618 -57.797 68.027 C -58.4 67.441 -59.003 66.854 -59.625 66.25 C -60.236 65.648 -60.847 65.046 -61.477 64.426 C -62.98 62.946 -64.489 61.472 -66 60 C -61.905 60 -60.664 61.641 -57.562 64.25 C -56.615 65.039 -55.668 65.828 -54.691 66.641 C -52.361 68.683 -50.157 70.777 -48 73 C -46.719 71.016 -46.719 71.016 -47.68 68.828 C -51.441 60.715 -55.891 57.031 -64.145 53.75 C -69.943 51.675 -69.943 51.675 -76 51 Z M 53.551 60.176 C 50.568 63.685 48.74 67.767 47 72 C 47.66 72.33 48.32 72.66 49 73 C 49.444 72.667 49.888 72.334 50.345 71.99 C 52.351 70.489 54.363 68.994 56.375 67.5 C 57.423 66.713 57.423 66.713 58.492 65.91 C 59.163 65.414 59.833 64.918 60.523 64.406 C 61.141 63.945 61.759 63.485 62.396 63.01 C 64 62 64 62 66 62 C 61.671 67.184 57.234 71.727 52 76 C 52.33 76.66 52.66 77.32 53 78 C 58.683 77.574 62.943 75.984 67 72 C 71.493 65.571 75.272 58.35 78 51 C 70.229 51 59.441 55.2 53.551 60.176 Z M -47.812 79.25 C -55.896 89.683 -55.896 89.683 -59 102 C -57.68 102 -56.36 102 -55 102 C -54.504 100.938 -54.007 99.876 -53.496 98.781 C -49.799 91.029 -46.341 83.961 -40 78 C -39.493 77.486 -38.987 76.971 -38.465 76.441 C -27.31 65.889 -12.916 61.507 2.135 61.644 C 8.125 61.842 13.386 62.98 19 65 C 19.828 65.267 20.655 65.534 21.508 65.809 C 36.683 71.16 46.033 82.213 52.871 96.336 C 53.819 98.573 54.511 100.629 55 103 C 56.32 103 57.64 103 59 103 C 58.545 90.932 51.22 82.248 43 74 C 42.385 73.362 41.77 72.724 41.137 72.066 C 30.759 62.089 16.324 57.219 2.125 56.625 C -17.358 57.362 -34.907 64.245 -47.812 79.25 Z M -39 85 C -44.217 91.172 -47.238 97.115 -49 105 C -45.744 104.512 -42.715 103.912 -39.562 102.938 C -32.125 101.032 -23.014 100.785 -15.687 103.188 C -10.554 104.319 -6.817 102.836 -2 101 C -2.33 99.35 -2.66 97.7 -3 96 C -7.207 94.785 -9.4 95.269 -13.375 97 C -18.234 98.899 -20.995 99.46 -26 98 C -26.99 97.34 -27.98 96.68 -29 96 C -28.73 92.129 -28.241 90.294 -25.75 87.25 C -22.248 84.385 -19.686 83.268 -15.25 82.563 C -10.531 83.198 -7 85.511 -3 88 C -4.398 84.455 -4.398 84.455 -6 81 C -6.134 78.328 -6.043 75.677 -6 73 C 0.75 74.625 0.75 74.625 3 78 C 3.195 80.918 3.195 80.918 3.125 84.188 C 3.107 85.274 3.089 86.361 3.07 87.48 C 3.047 88.312 3.024 89.143 3 90 C 3.763 89.216 4.526 88.433 5.313 87.625 C 9.019 84.005 11.296 82.723 16.375 82.25 C 17.311 82.152 18.247 82.054 19.211 81.953 C 22.294 82.005 24.27 82.591 27 84 C 28.234 86.468 28.202 88.247 28.25 91 C 28.276 91.887 28.302 92.774 28.328 93.688 C 28.22 94.451 28.112 95.214 28 96 C 24.238 98.508 22.171 98.236 17.688 98.188 C 16.392 98.181 15.096 98.175 13.762 98.168 C 10.415 98.019 7.284 97.636 4 97 C 3.67 98.32 3.34 99.64 3 101 C 7.184 104.043 9.87 104.489 15 104 C 16.901 103.521 18.797 103.018 20.688 102.5 C 29.699 100.129 37.621 99.721 46 104 C 46.99 104 47.98 104 49 104 C 47.136 97.083 44.242 91.746 40 86 C 38.917 84.453 38.917 84.453 37.813 82.875 C 29.292 73.012 15.524 68.329 3 67 C -13.21 66.214 -28.106 73.333 -39 85 Z M -3.393 76.084 C -4.165 77.921 -3.772 76.837 -4 79 C -2.77 80.813 -0.115 82.233 0.565 82.233 C 0.565 80.583 1.125 79.796 0.123 78.256 C -0.649 77.308 -2.033 76.764 -3.393 76.084 Z M -99 80 C -94.801 89.034 -88.293 98.186 -78.742 101.871 C -73.59 103.277 -69.9 103.144 -65 101 C -64.505 99.515 -64.505 99.515 -64 98 C -64.75 97.697 -65.5 97.394 -66.273 97.082 C -73.005 94.327 -79.546 91.355 -86 88 C -86 87.67 -86 87.34 -86 87 C -79.496 88.632 -73.282 90.541 -67.094 93.133 C -65.423 93.825 -63.716 94.428 -62 95 C -61.228 93.163 -61.228 93.163 -61 91 C -66.937 83.914 -74.729 81.749 -83.538 80.869 C -91.259 80.227 -91.259 80.227 -99 80 Z M 64.563 87.688 C 63.883 88.31 63.204 88.933 62.504 89.574 C 62.008 90.045 61.511 90.515 61 91 C 61.33 92.32 61.66 93.64 62 95 C 67.287 94.234 71.331 91.818 75.965 89.277 C 79.232 87.902 81.494 87.754 85 88 C 82.037 90.393 79.11 91.977 75.625 93.5 C 71.694 95.242 67.825 97.036 64 99 C 68.283 101.855 71.976 101.598 77 101 C 86.158 97.275 91.035 89.15 96 81 C 92.813 80.912 89.626 80.859 86.438 80.813 C 85.542 80.787 84.647 80.762 83.725 80.736 C 75.791 80.649 70.525 82.144 64.563 87.688 Z M 8 87 C 7.67 87.66 7.34 88.32 7 89 C 7.915 88.977 8.83 88.954 9.773 88.93 C 10.962 88.912 12.15 88.894 13.375 88.875 C 14.558 88.852 15.742 88.829 16.961 88.805 C 20 89 20 89 22 91 C 20.536 90.857 20.536 90.857 19.043 90.711 C 17.771 90.6 16.498 90.489 15.188 90.375 C 13.923 90.259 12.658 90.143 11.355 90.023 C 7.864 89.686 7.864 89.686 5 92 C 11.483 94.631 17.023 95.393 24 95 C 25.788 91.542 25.788 91.542 25.375 87.813 C 23.677 85.574 22.682 84.87 20 84 C 15.002 83.546 12.02 83.926 8 87 Z M -24 89 C -25.347 91.571 -25.347 91.571 -26 94 C -24.387 95.613 -22.664 95.248 -20.437 95.313 C -14.978 95.289 -11.655 93.759 -7 91 C -7.66 90.34 -8.32 89.68 -9 89 C -11.916 89.201 -11.916 89.201 -15.125 89.875 C -16.221 90.079 -17.316 90.282 -18.445 90.492 C -19.288 90.66 -20.131 90.827 -21 91 C -21 90.34 -21 89.68 -21 89 C -17.7 88.34 -14.4 87.68 -11 87 C -11 86.67 -11 86.34 -11 86 C -18.028 85.584 -18.028 85.584 -24 89 Z" fill="#52734D" transform="matrix(1, 0, 0, 1, 113, 4)"/>
</svg>